<?xml version="1.0" encoding="UTF-8"?>
<svg version="1.1" viewBox="100 100 1748 1273" width="100%" height="100%" xmlns="http://www.w3.org/2000/svg">
<path transform="translate(0)" d="m0 0h2048v1673h-2048z" fill="none"/>
<path transform="translate(1172,96)" d="m0 0h74l1 1v148l-4 1h-71l-1-1v-29l-7 1h-98l-1 246h155l33 1 1 205 5 1h265l32 1 27 3 25 5 25 7 26 10 16 7 22 12 20 13 21 16 13 11 8 7 7 8 10 10 11 14 13 17 12 19 10 18 9 19 10 26 8 29 5 27 3 27 1 15v20l-2 23-5 31-7 27-10 28-11 24-13 23-8 12-14 19-11 13-7 8-19 19-8 7-15 12-16 11-16 10-23 12-27 12-27 9-26 6-18 3-18 2-15 1-426 1-2 4-10 13-11 14-13 16-22 28-12 15-11 14-12 15-11 14-13 16-10 13-12 15-13 17-13 16-22 28h-2l-1-238-431-1-24-2-23-3-28-6-30-10-21-9-16-8-20-11-19-13-13-10-13-11-15-14-10-10-9-11-14-18-11-17-10-17-9-17-8-19-9-25-7-27-4-24-2-16-1-18v-35l3-25 6-29 7-24 7-19 9-20 13-25 14-21 10-13 14-17 14-15 8-8 11-9 15-12 17-12 20-12 23-12 25-10 21-7 25-6 27-4 12-1 28-1h276v-206l16-1h172v-337l1-1 198-1v-27z"/>
<path transform="translate(577,827)" d="m0 0h33l17 2 20 5 21 9 14 7 17 12 12 11 13 13 10 13 9 14 9 19 6 18 4 18 2 16v28l-3 20-6 21-9 21-10 17-11 14-12 13-11 10-12 9-18 10-15 7-24 8-17 3-12 1h-22l-18-2-19-5-19-7-20-10-12-8-10-8-7-6v-2l-4-2-7-8-12-15-8-13-8-16-7-19-5-21-2-20v-22l3-20 6-21 8-20 8-14 10-14 9-11 15-15 13-10 16-10 17-8 19-7 20-4z" fill="#fff"/>
<path transform="translate(1426,827)" d="m0 0h33l21 3 15 4 20 8 17 9 14 10 13 11 10 10 9 11 11 16 9 17 7 18 5 21 2 13 1 12v16l-2 18-6 25-8 20-8 15-9 13-9 11-20 20-14 10-18 10-16 7-18 6-14 3-18 2h-23l-18-2-19-5-21-8-19-10-13-9-13-11-11-11-11-14-10-15-8-16-8-22-4-17-2-17v-30l3-19 8-26 10-21 7-11 10-13 9-10 14-14 18-13 21-11 21-8 22-5z" fill="#fff"/>
<path transform="translate(1e3 827)" d="m0 0h33l17 2 19 5 20 8 14 7 12 8 14 11 17 17 13 17 11 19 8 20 5 17 3 19 1 10v22l-3 21-4 16-8 21-10 19-10 14-13 15-7 7-11 9-10 7-16 9-15 7-21 7-20 4-12 1h-22l-19-2-21-6-16-6-20-10-15-10-15-13-7-7-9-11-10-14-9-16-8-20-6-21-3-22v-26l2-16 5-19 7-19 8-16 10-15 11-14 16-16 16-12 15-9 15-7 19-7 20-4z" fill="#fff"/>
<path transform="translate(1434,852)" d="m0 0h8l-5 4-17 9-19 12-14 10-15 13-12 11-20 20-9 11-14 18-13 20-7 11-3 1 1-8 8-26 11-25 10-16 10-13 11-12 11-9 14-10 16-8 16-6 19-5z"/>
<path transform="translate(1010,852)" d="m0 0h8l-3 3-19 10-22 14-13 10-13 11-15 14-16 16-11 14-9 11-13 19-10 16-4 3 1-8 5-18 10-25 9-17 12-17 9-11 11-10 15-11 15-9 21-8 19-5z"/>
<path transform="translate(585,852)" d="m0 0h8l-3 3-19 10-23 15-12 9-10 9-8 7-12 11-11 11-9 11-10 12-13 18-12 19-3 5-3 1 4-18 7-21 9-20 9-15 9-12 9-10 9-9 13-10 13-8 10-5 19-7 21-5z"/>
</svg>
