<?xml version="1.0" encoding="UTF-8"?>
<svg version="1.1" viewBox="100 100 1748 1273" width="100%" height="100%" xmlns="http://www.w3.org/2000/svg">
<path transform="translate(1174,89)" d="m0 0h70l1 1v147l-9 1-64-1-1-5v-23h-109l-1 252h162l28 1 1 1 1 207 285 1 22 1 28 3 25 5 25 7 26 10 25 12 16 9 18 12 13 10 16 13 15 14 15 16 11 14 10 13 10 15 11 19 9 19 6 13 9 24 8 32 4 24 3 28v41l-4 32-5 23-7 25-11 28-14 28-12 20-11 15-9 12-12 14-1 2h-2l-2 4-7 7-8 7-11 10-17 13-18 12-19 11-17 9-31 13-30 9-29 6-25 3-33 2h-394l-21 1-2 4-8 9-10 13-33 42-13 16-10 13-10 12-22 28-10 13-11 14-8 10-9 12-10 13-14 18-11 14-6 8h-2l-1-4v-231l-1-4-423-1-32-2-26-3-28-6-32-10-25-11-26-13-19-12-14-10-16-13-12-11-8-7-15-16-13-17-11-15-11-18-12-22-9-21-10-28-6-24-4-21-3-25-1-20v-26l3-26 6-29 6-22 9-25 11-24 10-19 11-17 10-14 9-11 11-13 25-25 11-9 14-11 18-12 19-11 21-11 28-11 26-8 24-5 26-3 13-1 34-1h267l1-208 1-1 62-1h127v-257l1-84 1-1h133l67-1v-21l2-7zm-599 738-22 2-21 5-18 7-16 8-15 10-11 9-10 9-11 12-12 16-10 17-10 24-5 20-2 16v31l4 27 6 19 9 21 8 14 8 11 11 13 17 17 15 11 12 7 22 10 19 6 12 3 16 2h27l21-3 21-6 15-6 16-8 15-9 14-11 11-10 7-8 11-14 10-16 7-14 8-22 4-21 1-6v-37l-4-25-5-16-7-17-9-16-10-14-11-13-9-10-16-13-19-12-24-11-26-7-22-2zm427 0-20 2-23 6-21 9-15 8-16 12-11 9-7 8-9 10-11 15-8 13-8 17-6 20-4 21-1 9v26l4 27 6 21 8 18 9 16 9 12 9 11 18 18 18 13 25 13 27 9 16 3 9 1h30l20-3 21-6 19-8 19-10 14-10 10-9 9-8 7-8 11-14 10-16 7-15 7-20 4-18 1-10v-34l-2-17-5-21-8-21-9-16-10-14-11-13-16-16-14-11-15-9-19-9-18-6-12-3-20-2zm428 0-18 2-20 5-16 6-16 8-16 10-13 11-5 4-7 8-8 8-12 16-9 16-8 17-7 22-3 15v48l4 20 7 21 9 20 10 16 9 11 11 12 12 12 14 10 14 8 21 10 25 8 19 3h31l25-4 27-9 16-8 13-7 14-10 10-9 14-14 10-13 10-15 10-21 6-18 3-12 2-16 1-19-3-32-4-17-8-21-10-19-10-14-11-13-11-12-14-11-14-10-23-11-21-7-20-4-12-1z" fill="#FEFEFE"/>
<path transform="translate(572,855)" d="m0 0h8l-3 3-11 6-18 11-15 10-14 11-15 13-24 24-11 14-8 10-19 28-4 3 1-9 9-24 8-17 10-16 9-12 9-10 8-8 14-11 14-9 20-9 21-6z" fill="#FEFEFE"/>
<path transform="translate(1433,855)" d="m0 0h5l-3 3-20 12-15 10-13 9-13 11-10 9-6 6h-2v2l-5 4-1 2h-2l-2 4-8 8-13 17-10 13-15 22-3 1 4-16 6-16 8-16 6-11 8-12 13-16 13-12 15-11 14-8 19-8 19-5z" fill="#FEFEFE"/>
<path transform="translate(1e3 855)" d="m0 0h5l-4 4-23 14-15 10-12 9-13 11-16 15-9 9-7 8-13 16-13 18-10 15-5 4 1-7 6-18 10-22 11-18 12-16 9-10 14-12 18-12 17-8 18-6z" fill="#FEFEFE"/>
</svg>
